<?xml version="1.0" encoding="utf-8"?>
<!-- Generator: Adobe Illustrator 21.1.0, SVG Export Plug-In . SVG Version: 6.00 Build 0)  -->
<svg version="1.1" id="Capa_1" xmlns="http://www.w3.org/2000/svg" xmlns:xlink="http://www.w3.org/1999/xlink" x="0px" y="0px"
	 viewBox="0 0 283.5 283.5" style="enable-background:new 0 0 283.5 283.5;" xml:space="preserve">
<style type="text/css">
	.st0{fill:#FFFFFF;}
</style>
<g>
	<g>
		<path class="st0" d="M53.2,268.5c0.3,8.3,7.2,15,15.7,15h146.1c8.3,0,15.2-6.6,15.7-15l10.3-192.8H42.8L53.2,268.5z M174.9,130.4
			c0-3.5,2.9-6.4,6.4-6.4h10.2c3.5,0,6.4,2.9,6.4,6.4v98.4c0,3.5-2.9,6.4-6.4,6.4h-10.2c-3.5,0-6.4-2.9-6.4-6.4V130.4z M130.4,130.4
			c0-3.5,2.9-6.4,6.4-6.4H147c3.5,0,6.4,2.9,6.4,6.4v98.4c0,3.5-2.9,6.4-6.4,6.4h-10.2c-3.5,0-6.4-2.9-6.4-6.4V130.4L130.4,130.4z
			 M86,130.4c0-3.5,2.9-6.4,6.4-6.4h10.2c3.5,0,6.4,2.9,6.4,6.4v98.4c0,3.5-2.9,6.4-6.4,6.4H92.3c-3.5,0-6.4-2.9-6.4-6.4V130.4z"/>
		<path class="st0" d="M247.8,16h-67.3V3.3c0-1.8-1.4-3.3-3.3-3.3h-70.7c-1.8,0-3.3,1.4-3.3,3.3V16H35.8c-5.4,0-9.9,4.4-9.9,9.9
			v30.8h231.7V25.9C257.7,20.4,253.3,16,247.8,16z"/>
	</g>
</g>
</svg>
