<?xml version="1.0" encoding="utf-8"?>
<!-- Generator: Adobe Illustrator 21.1.0, SVG Export Plug-In . SVG Version: 6.00 Build 0)  -->
<svg version="1.1" id="Capa_1" xmlns="http://www.w3.org/2000/svg" xmlns:xlink="http://www.w3.org/1999/xlink" x="0px" y="0px"
	 viewBox="0 0 283.5 283.5" style="enable-background:new 0 0 283.5 283.5;" xml:space="preserve">
<style type="text/css">
	.st0{fill:#A8C7F2;}
</style>
<path class="st0" d="M86.2,192.5c7,7,15.5,12.7,24.8,16.7l-17.6,17.6L83,216.4L72.6,206L86.2,192.5z M190.1,226.8l10.4-10.4
	l10.4-10.4l-13.5-13.5c-7,7-15.5,12.7-24.7,16.7L190.1,226.8z M69.2,105.9c7.6-17.9,21.7-32.3,39.1-40.6c-5.1-5.3-12.4-8.5-20.2-8.5
	c-15.6,0-28.2,12.6-28.2,28.2C59.9,93.2,63.5,100.7,69.2,105.9z M214.3,105.9c5.7-5.2,9.2-12.6,9.2-20.9c0-15.6-12.6-28.2-28.2-28.2
	c-8,0-15.1,3.2-20.2,8.5C192.6,73.6,206.7,88,214.3,105.9z M74.6,136.7c0-37.1,30.1-67.1,67.1-67.1s67.1,30.1,67.1,67.1
	c0,37.1-30.1,67.1-67.1,67.1S74.6,173.7,74.6,136.7z M134.4,144h41.2v-14.7h-26.6v-25.1h-14.7V144z"/>
</svg>
