<?xml version="1.0" encoding="utf-8"?>
<!-- Generator: Adobe Illustrator 21.1.0, SVG Export Plug-In . SVG Version: 6.00 Build 0)  -->
<svg version="1.1" id="Capa_1" xmlns="http://www.w3.org/2000/svg" xmlns:xlink="http://www.w3.org/1999/xlink" x="0px" y="0px"
	 viewBox="0 0 283.5 283.5" style="enable-background:new 0 0 283.5 283.5;" xml:space="preserve">
<style type="text/css">
	.st0{fill:#FFFFFF;}
</style>
<g>
	<g>
		<path class="st0" d="M60.9,269.8c0.3,7.6,6.6,13.7,14.3,13.7h133.2c7.6,0,13.9-6,14.3-13.7L232.1,69H51.4L60.9,269.8z
			 M171.9,118.9c0-3.2,2.6-5.8,5.8-5.8h9.3c3.2,0,5.8,2.6,5.8,5.8v114.7c0,3.2-2.6,5.8-5.8,5.8h-9.3c-3.2,0-5.8-2.6-5.8-5.8V118.9z
			 M131.3,118.9c0-3.2,2.6-5.8,5.8-5.8h9.3c3.2,0,5.8,2.6,5.8,5.8v114.7c0,3.2-2.6,5.8-5.8,5.8h-9.3c-3.2,0-5.8-2.6-5.8-5.8V118.9
			L131.3,118.9z M90.8,118.9c0-3.2,2.6-5.8,5.8-5.8h9.3c3.2,0,5.8,2.6,5.8,5.8v114.7c0,3.2-2.6,5.8-5.8,5.8h-9.3
			c-3.2,0-5.8-2.6-5.8-5.8V118.9z"/>
		<path class="st0" d="M238.4,14.6H177V3c0-1.6-1.3-3-3-3h-64.5c-1.6,0-3,1.3-3,3v11.6H45c-4.9,0-9,4-9,9v28.1h211.3V23.6
			C247.4,18.6,243.4,14.6,238.4,14.6z"/>
	</g>
</g>
</svg>
