<?xml version="1.0" encoding="utf-8"?>
<!-- Generator: Adobe Illustrator 21.1.0, SVG Export Plug-In . SVG Version: 6.00 Build 0)  -->
<svg version="1.1" id="Capa_1" xmlns="http://www.w3.org/2000/svg" xmlns:xlink="http://www.w3.org/1999/xlink" x="0px" y="0px"
	 viewBox="0 0 283.5 283.5" style="enable-background:new 0 0 283.5 283.5;" xml:space="preserve">
<style type="text/css">
	.st0{fill:#27303A;}
</style>
<g id="Settings">
	<g>
		<path class="st0" d="M254.4,129.2c-0.4-3.2-4.1-5.6-7.3-5.6c-10.4,0-19.6-6.1-23.5-15.5c-3.9-9.7-1.4-20.9,6.3-28
			c2.4-2.2,2.7-6,0.7-8.5c-5.3-6.7-11.4-12.8-18-18.2c-2.6-2.1-6.4-1.8-8.6,0.7c-6.8,7.5-18.9,10.3-28.3,6.3
			c-9.7-4.1-15.9-14-15.3-24.6c0.2-3.3-2.3-6.2-5.6-6.6c-8.5-1-17-1-25.5-0.1c-3.3,0.4-5.7,3.2-5.6,6.5c0.4,10.5-5.8,20.2-15.5,24.2
			c-9.3,3.8-21.3,1-28.1-6.4c-2.2-2.4-6-2.7-8.5-0.7c-6.8,5.3-13,11.4-18.3,18.1c-2.1,2.6-1.8,6.4,0.7,8.6c8,7.2,10.5,18.6,6.4,28.3
			c-3.9,9.3-13.6,15.3-24.7,15.3c-3.6-0.1-6.2,2.3-6.6,5.6c-1,8.5-1,17.2,0,25.8c0.4,3.2,4.2,5.6,7.4,5.6
			c9.9-0.3,19.4,5.8,23.3,15.5c3.9,9.7,1.4,20.9-6.3,28c-2.4,2.2-2.7,5.9-0.7,8.5c5.3,6.7,11.3,12.8,17.9,18.2
			c2.6,2.1,6.4,1.8,8.6-0.7c6.8-7.5,18.9-10.3,28.3-6.4c9.8,4.1,15.9,14,15.3,24.6c-0.2,3.3,2.3,6.2,5.6,6.6
			c4.3,0.5,8.7,0.8,13.1,0.8c4.2,0,8.3-0.2,12.4-0.7c3.3-0.4,5.7-3.2,5.6-6.5c-0.4-10.5,5.8-20.2,15.5-24.2c9.3-3.8,21.3-1,28.1,6.4
			c2.3,2.4,5.9,2.7,8.5,0.7c6.8-5.3,12.9-11.4,18.3-18.1c2.1-2.6,1.8-6.4-0.7-8.6c-7.9-7.1-10.5-18.5-6.3-28.3
			c3.9-9.2,13.2-15.4,23.2-15.4l1.4,0c3.2,0.3,6.2-2.3,6.6-5.6C255.3,146.4,255.4,137.7,254.4,129.2z M141.9,179.8
			c-20.9,0-37.8-17-37.8-37.8s17-37.8,37.8-37.8s37.8,17,37.8,37.8S162.8,179.8,141.9,179.8z"/>
	</g>
</g>
</svg>
