<?xml version="1.0" encoding="utf-8"?>
<!-- Generator: Adobe Illustrator 21.1.0, SVG Export Plug-In . SVG Version: 6.00 Build 0)  -->
<svg version="1.1" id="Capa_1" xmlns="http://www.w3.org/2000/svg" xmlns:xlink="http://www.w3.org/1999/xlink" x="0px" y="0px"
	 viewBox="0 0 283.5 283.5" style="enable-background:new 0 0 283.5 283.5;" xml:space="preserve">
<style type="text/css">
	.st0{fill:#A8C7F2;}
</style>
<path class="st0" d="M93.6,185.7c6.1,6.1,13.4,11,21.5,14.5l-15.2,15.2l-9-9l-9-9L93.6,185.7z M183.6,215.4l9-9l9-9l-11.7-11.7
	c-6.1,6.1-13.4,11-21.4,14.5L183.6,215.4z M78.9,110.7c6.6-15.5,18.8-28,33.9-35.2c-4.4-4.6-10.7-7.4-17.5-7.4
	c-13.5,0-24.4,10.9-24.4,24.4C70.9,99.7,74,106.2,78.9,110.7z M204.6,110.7c4.9-4.5,8-10.9,8-18.1c0-13.5-10.9-24.4-24.4-24.4
	c-6.9,0-13.1,2.8-17.5,7.4C185.8,82.7,198,95.2,204.6,110.7z M83.6,137.4c0-32.1,26.1-58.1,58.1-58.1s58.1,26.1,58.1,58.1
	c0,32.1-26.1,58.1-58.1,58.1C109.7,195.5,83.6,169.4,83.6,137.4z M135.4,143.7h35.7V131h-23v-21.7h-12.7V143.7z"/>
</svg>
