<?xml version="1.0" encoding="utf-8"?>
<!-- Generator: Adobe Illustrator 21.1.0, SVG Export Plug-In . SVG Version: 6.00 Build 0)  -->
<svg version="1.1" id="Capa_1" xmlns="http://www.w3.org/2000/svg" xmlns:xlink="http://www.w3.org/1999/xlink" x="0px" y="0px"
	 viewBox="0 0 283.5 283.5" style="enable-background:new 0 0 283.5 283.5;" xml:space="preserve">
<style type="text/css">
	.st0{fill:#FFFFFF;}
</style>
<g>
	<path class="st0" d="M191,9.2c0-5.1-4.1-9.2-9.2-9.2h-21.6c-5.1,0-9.2,4.1-9.2,9.2v46.2c0,5.1,4.1,9.2,9.2,9.2h21.6
		c5.1,0,9.2-4.1,9.2-9.2V9.2z"/>
	<path class="st0" d="M278.6,55L242.3,7.2c-3-3.9-9.1-7.2-14-7.2h-1.3c-6.2,0-11.3,5.6-11.3,11.8v71.7c0,0.6-0.5,0.7-1.1,0.7H69.5
		c-0.6,0-1.8-0.1-1.8-0.7V11.8C67.8,5.6,63.4,0,57.2,0H12.1C5.9,0,0,5.6,0,11.8v259.9c0,6.2,5.9,11.8,12.1,11.8H272
		c6.2,0,11.5-5.6,11.5-11.8V69.1C283.5,64.6,281.3,58.5,278.6,55z M244.4,256.8H39V154.1h205.4V256.8z"/>
	<path class="st0" d="M161.2,195.1c0-5.1-4.1-9.2-9.2-9.2H62.6c-5.1,0-9.2,4.1-9.2,9.2v21.6c0,5.1,4.1,9.2,9.2,9.2H152
		c5.1,0,9.2-4.1,9.2-9.2V195.1z"/>
</g>
</svg>
