<?xml version="1.0" encoding="utf-8"?>
<!-- Generator: Adobe Illustrator 21.1.0, SVG Export Plug-In . SVG Version: 6.00 Build 0)  -->
<svg version="1.1" id="Capa_1" xmlns="http://www.w3.org/2000/svg" xmlns:xlink="http://www.w3.org/1999/xlink" x="0px" y="0px"
	 viewBox="0 0 283.5 283.5" style="enable-background:new 0 0 283.5 283.5;" xml:space="preserve">
<style type="text/css">
	.st0{fill:#838EA8;}
</style>
<g>
	<path class="st0" d="M187.3,176.8c-4.4,0-8,3.6-8,8v1.6H48V98.7c0.1-0.1,0.2-0.3,0.3-0.3H112c4.4,0,8-3.6,8-8s-3.6-8-8-8H48.3
		c-8.8,0-16.3,7.4-16.3,16.2v98.7c0,8.7,7.3,15.9,16.3,15.9h52.6v7.8c0,1.5-1.3,2.9-2.8,2.9H65.3c-4.6,0-8.3,3.5-8.3,7.8v2.9
		c0,4.3,3.8,8,8.3,8h97.2c4.4,0,8.2-3.7,8.2-8v-2.9c0-4.3-3.7-7.8-8.2-7.8h-32.7c-1.4,0-2.9-1.4-2.9-2.9v-7.8h52.1
		c8.9,0,16.2-7.1,16.2-15.9v-12.4C195.3,180.4,191.7,176.8,187.3,176.8z"/>
	<g id="Settings">
		<g>
			<path class="st0" d="M251.1,95.4c-0.2-1.7-2.2-3-3.9-3c-5.6,0-10.6-3.3-12.7-8.4c-2.1-5.2-0.8-11.3,3.4-15.1
				c1.3-1.2,1.5-3.2,0.4-4.6c-2.9-3.6-6.1-6.9-9.7-9.8c-1.4-1.1-3.4-1-4.7,0.4c-3.7,4-10.2,5.5-15.2,3.4c-5.3-2.2-8.6-7.6-8.3-13.3
				c0.1-1.8-1.2-3.4-3-3.6c-4.6-0.5-9.2-0.5-13.8,0c-1.8,0.2-3.1,1.7-3,3.5c0.2,5.7-3.2,10.9-8.4,13c-5,2-11.5,0.5-15.1-3.4
				c-1.2-1.3-3.2-1.5-4.6-0.4c-3.7,2.9-7,6.2-9.9,9.8c-1.1,1.4-1,3.4,0.4,4.7c4.3,3.9,5.7,10,3.5,15.3c-2.1,5-7.3,8.3-13.3,8.3
				c-1.9-0.1-3.3,1.2-3.5,3c-0.5,4.6-0.5,9.3,0,13.9c0.2,1.7,2.3,3,4,3c5.3-0.1,10.4,3.2,12.6,8.4c2.1,5.2,0.8,11.3-3.4,15.1
				c-1.3,1.2-1.5,3.2-0.4,4.6c2.8,3.6,6.1,6.9,9.7,9.8c1.4,1.1,3.4,1,4.7-0.4c3.7-4,10.2-5.5,15.2-3.4c5.3,2.2,8.6,7.6,8.3,13.3
				c-0.1,1.8,1.2,3.4,3,3.6c2.3,0.3,4.7,0.4,7,0.4c2.2,0,4.5-0.1,6.7-0.4c1.8-0.2,3.1-1.7,3-3.5c-0.2-5.7,3.2-10.9,8.4-13
				c5-2.1,11.5-0.5,15.1,3.4c1.2,1.3,3.2,1.5,4.6,0.4c3.7-2.9,7-6.2,9.9-9.8c1.1-1.4,1-3.4-0.4-4.7c-4.3-3.8-5.6-10-3.4-15.3
				c2.1-5,7.1-8.3,12.5-8.3l0.8,0c1.7,0.1,3.4-1.2,3.6-3C251.6,104.7,251.6,100.1,251.1,95.4z M190.4,122.7
				c-11.3,0-20.4-9.2-20.4-20.4s9.2-20.4,20.4-20.4c11.3,0,20.4,9.2,20.4,20.4S201.6,122.7,190.4,122.7z"/>
		</g>
	</g>
</g>
</svg>
