<?xml version="1.0" encoding="utf-8"?>
<!-- Generator: Adobe Illustrator 21.1.0, SVG Export Plug-In . SVG Version: 6.00 Build 0)  -->
<svg version="1.0" id="icon_setting" xmlns="http://www.w3.org/2000/svg" xmlns:xlink="http://www.w3.org/1999/xlink" x="0px"
	 y="0px" viewBox="0 0 28.3 28.3" style="enable-background:new 0 0 28.3 28.3;" xml:space="preserve">
<style type="text/css">
	.st0{fill:#27303A;}
</style>
<path class="st0" d="M28.3,15.7v-3.2l-0.5-0.1l-3.5-1.1L23.5,9l1.8-3.7L23,3l-0.4,0.2l-3.2,1.6l-2.2-0.9L15.7,0h-3.2l-0.1,0.5
	L11.3,4L9,4.8L5.2,3.1L3,5.3l0.2,0.4L4.8,9l-0.9,2.2L0,12.6v3.2L0.5,16L4,17.1l0.9,2.2L3.1,23l2.3,2.3l0.4-0.2L9,23.5l2.2,0.9
	l1.4,3.9h3.2l0.1-0.5l1.1-3.5l2.2-0.9l3.7,1.8l2.3-2.3L25,22.5l-1.6-3.2l0.9-2.2L28.3,15.7z M14.2,18.7c-2.5,0-4.5-2-4.5-4.5
	s2-4.5,4.5-4.5s4.5,2,4.5,4.5S16.7,18.7,14.2,18.7z"/>
</svg>
