<?xml version="1.0" encoding="utf-8"?>
<!-- Generator: Adobe Illustrator 21.1.0, SVG Export Plug-In . SVG Version: 6.00 Build 0)  -->
<svg version="1.1" id="Capa_1" xmlns="http://www.w3.org/2000/svg" xmlns:xlink="http://www.w3.org/1999/xlink" x="0px" y="0px"
	 viewBox="0 0 283.5 283.5" style="enable-background:new 0 0 283.5 283.5;" xml:space="preserve">
<style type="text/css">
	.st0{fill:#838EA8;}
</style>
<path class="st0" d="M255.1,101.4L230,157.6l-56.1-25.1l26.3-10.1c-8.1-23.4-30.3-40.3-56.5-40.3c-25.1,0-47.7,15.9-56.2,39.4
	l-30.4-11c13.1-36.3,47.9-60.8,86.6-60.8c39.9,0,73.9,25.5,86.7,61.1L255.1,101.4z M139.7,233.7c38.7,0,73.5-24.4,86.6-60.8
	l-30.4-11c-8.5,23.6-31.1,39.4-56.2,39.4c-26.1,0-48.4-16.9-56.5-40.3l26.3-10.1l-56.1-25.1L28.3,182l24.7-9.5
	C65.8,208.1,99.9,233.7,139.7,233.7z"/>
</svg>
