<?xml version="1.0" encoding="utf-8"?>
<!-- Generator: Adobe Illustrator 21.1.0, SVG Export Plug-In . SVG Version: 6.00 Build 0)  -->
<svg version="1.1" id="레이어_1" xmlns="http://www.w3.org/2000/svg" xmlns:xlink="http://www.w3.org/1999/xlink" x="0px"
	 y="0px" viewBox="0 0 566.9 102" style="enable-background:new 0 0 566.9 102;" xml:space="preserve">
<style type="text/css">
	.st0{fill:#CAE0FF;}
	.st1{opacity:0.8;fill:#CAE0FF;enable-background:new    ;}
</style>
<g>
	<path class="st0" d="M30.9,97.2H20.8V49.6H0.6V42h50.8v7.7l-20.5-0.1C30.9,49.6,30.9,97.2,30.9,97.2z"/>
	<path class="st0" d="M67.6,49.2h-9.1V42h9.1V49.2z M67.6,97.2h-9.1V58.6h9.1V97.2z"/>
	<path class="st0" d="M131.8,78.2V80c0,7.7-0.9,10.7-3.9,13.4c-1.9,1.7-5.5,3.1-9.2,3.6c-2.4,0.4-7.7,0.6-14.3,0.6
		c-9.9,0-13.8-0.5-17.7-2.2c-5.5-2.4-8.1-6.5-8.8-13.9c-0.4-3.3-0.6-9.7-0.6-15.2c0-12.9,1-16.4,5.5-20c4.7-3.8,9.6-4.7,25.7-4.7
		c9.1,0,12.3,0.4,15.7,2.1c3.7,1.7,5.9,5.3,6.5,9.7c0.2,1.7,0.3,2.7,0.4,6.2H121c-0.2-9.8-1.5-10.8-13.5-10.8
		c-17.7,0-19.7,1.3-19.7,12.9c0,17.4,0.3,21.2,1.7,24.1c1.8,3.6,4.7,4.5,15.1,4.5c15.1,0,17.3-1.1,17.3-9.6c0-0.7,0-1.4-0.1-2.7
		L131.8,78.2L131.8,78.2z"/>
	<path class="st0" d="M176.7,61c3.6,2.7,4.9,7,4.9,16c0,17.2-3.5,20.5-21.3,20.5c-10.3,0-15.3-1.3-17.9-4.8c-2.4-3-3.2-6.9-3.2-15.6
		c0-15.7,3.7-19.1,21-19.1C169.7,58.1,173.6,58.8,176.7,61z M148.7,77.5c0,12.7,1.2,14.1,11.9,14.1c10.3,0,11.7-1.7,11.7-13.9
		c0-11.9-1.3-13.4-11.8-13.4C150.1,64.2,148.7,65.8,148.7,77.5z"/>
	<path class="st0" d="M200.5,58.6l-0.3,5.9l0.2,0.1c2.2-4.5,6.9-6.5,14.7-6.5c7.5,0,12.7,1.7,14.9,4.9c1.2,1.7,1.6,3.7,1.6,8.4V97
		h-9.1V73.2c0-7.6-1.5-9-9.6-9c-8.8,0-12.5,2.9-12.5,9.8v23h-9.1V58.6H200.5z"/>
	<path class="st0" d="M270.5,64.5h-17.7v21.3c0,4.6,1.1,5.8,5.5,5.8c4.9,0,6.1-1.3,6.1-6.9c0-0.6,0-0.9-0.1-1.8h7.9
		c0.1,1.1,0.1,2.3,0.1,2.7c0,9-3.7,12.1-14.5,12.1c-7.5,0-11.4-1.4-13.2-4.9c-0.8-1.4-1-2.7-1-6.2V64.5h-6.3v-5.9h6.3v-8.9h9.1v8.9
		h17.7v5.9H270.5z"/>
	<path class="st0" d="M288.5,58.6l-0.7,4.9l0.2,0.1c3-4.2,6.5-5.8,12.9-5.8c8.8,0,12.5,3.5,12.5,11.9c0,0.3,0,1.6-0.1,2.7h-8.6
		c0.1-1.1,0.1-1.8,0.1-2.5c0-4.5-1.7-5.9-6.7-5.9c-4.3,0-7.2,1.3-8.6,3.7c-0.7,1.4-1,3.1-1,6.5v22.9h-9.1V58.6H288.5z"/>
	<path class="st0" d="M357.1,61c3.6,2.7,4.9,7,4.9,16c0,17.2-3.5,20.5-21.3,20.5c-10.3,0-15.3-1.3-17.9-4.8c-2.4-3-3.2-6.9-3.2-15.6
		c0-15.7,3.7-19.1,21-19.1C350.2,58.1,354.1,58.8,357.1,61z M329.1,77.5c0,12.7,1.2,14.1,11.9,14.1c10.3,0,11.7-1.7,11.7-13.9
		c0-11.9-1.3-13.4-11.8-13.4C330.5,64.2,329.1,65.8,329.1,77.5z"/>
	<path class="st0" d="M381,97.2h-9.1V42h9.1V97.2z"/>
	<path class="st0" d="M401.5,97.2h-9.1V42h9.1V97.2z"/>
	<path class="st0" d="M453.1,85.1v1.5c0,8.1-5.3,11.1-19.9,11.1c-17.7,0-21.7-3.7-21.7-20C411.5,62,415.7,58,433,58
		c11.6,0,16.5,2.1,18.8,7.9c1.1,2.8,1.3,4.9,1.3,13.3h-32.3v1.1c0,9.3,2.1,11.3,11.9,11.3c9.7,0,11.2-0.9,11.2-6.6L453.1,85.1
		L453.1,85.1z M443.9,74.1c-0.1-4.9-0.2-5.5-0.9-6.9c-1.1-2.5-3.7-3.3-10.3-3.3c-10.1,0-11.8,1.5-11.9,10.3L443.9,74.1L443.9,74.1z"
		/>
	<path class="st0" d="M471.9,58.6l-0.7,4.9l0.2,0.1c3-4.2,6.5-5.8,12.9-5.8c8.8,0,12.5,3.5,12.5,11.9c0,0.3,0,1.6-0.1,2.7h-8.6
		c0.1-1.1,0.1-1.8,0.1-2.5c0-4.5-1.7-5.9-6.7-5.9c-4.3,0-7.2,1.3-8.6,3.7c-0.7,1.4-1,3.1-1,6.5v22.9h-9.1V58.6H471.9z"/>
	<path class="st1" d="M564.1,22.7c-6,4.6-12.4,3.2-15.9-0.8l-16.5,8.7c0.7,1.9,1.1,3.9,1.1,6c0,2.5-0.5,4.8-1.4,6.9l12.9,7.7
		c2.7-2.2,6.8-2.8,10.9,0.4c5.7,7.6-1.5,16.1-9.2,12.9c-4.9-3.9-4.9-6.7-4.3-9.3l-12.9-7.6c-5.7,7-16.5,9.6-26.7,1.9
		c-11.1-14.6-0.9-30.7,13-30.7c5.9,0,11.1,2.9,14.3,7.4l16.5-8.7c-0.9-3.3-0.3-7.3,3.9-11.5C560.9-0.5,572.4,11.8,564.1,22.7z"/>
</g>
</svg>
