<?xml version="1.0" encoding="utf-8"?>
<!-- Generator: Adobe Illustrator 21.1.0, SVG Export Plug-In . SVG Version: 6.00 Build 0)  -->
<svg version="1.1" id="레이어_1" xmlns="http://www.w3.org/2000/svg" xmlns:xlink="http://www.w3.org/1999/xlink" x="0px"
	 y="0px" viewBox="0 0 850.4 141.7" style="enable-background:new 0 0 850.4 141.7;" xml:space="preserve">
<style type="text/css">
	.st0{opacity:0.8;}
</style>
<g>
	<g>
		<path d="M46.1,139.3H30.9V68H0.6V56.6h76.2v11.5L46.1,68V139.3z"/>
		<path d="M101.1,67.4H87.4V56.6h13.7V67.4z M101.1,139.3H87.4V81.4h13.7V139.3z"/>
		<path d="M197.5,110.8v2.8c0,11.6-1.3,16.1-5.8,20.1c-2.8,2.6-8.2,4.7-13.8,5.4c-3.6,0.6-11.6,0.9-21.5,0.9
			c-14.9,0-20.7-0.7-26.6-3.3c-8.3-3.6-12.2-9.7-13.2-20.9c-0.6-5-0.9-14.6-0.9-22.8c0-19.3,1.5-24.6,8.3-30
			c7.1-5.7,14.4-7.1,38.6-7.1c13.7,0,18.4,0.6,23.6,3.2c5.5,2.6,8.9,7.9,9.7,14.6c0.3,2.6,0.4,4.1,0.6,9.3h-15.2
			c-0.3-14.7-2.2-16.2-20.2-16.2c-26.6,0-29.6,2-29.6,19.3c0,26.1,0.4,31.8,2.5,36.2c2.7,5.4,7.1,6.8,22.6,6.8
			c22.7,0,25.9-1.7,25.9-14.4c0-1.1,0-2.1-0.1-4H197.5z"/>
		<path d="M264.8,85.1c5.4,4,7.4,10.5,7.4,24c0,25.8-5.2,30.8-32,30.8c-15.5,0-22.9-2-26.9-7.2c-3.6-4.5-4.8-10.3-4.8-23.4
			c0-23.5,5.6-28.7,31.5-28.7C254.3,80.7,260.2,81.8,264.8,85.1z M222.8,109.8c0,19,1.8,21.1,17.8,21.1c15.5,0,17.5-2.5,17.5-20.9
			c0-17.8-1.9-20.1-17.7-20.1C224.9,89.8,222.8,92.2,222.8,109.8z"/>
		<path d="M300.6,81.4l-0.4,8.9l0.3,0.1c3.3-6.7,10.3-9.8,22.1-9.8c11.3,0,19,2.5,22.4,7.4c1.8,2.6,2.4,5.6,2.4,12.6v38.5h-13.7
			v-35.8c0-11.4-2.2-13.5-14.4-13.5c-13.2,0-18.7,4.3-18.7,14.7v34.6H287V81.4H300.6z"/>
		<path d="M405.6,90.3H379v32c0,6.9,1.6,8.7,8.3,8.7c7.4,0,9.2-2,9.2-10.4c0-0.9,0-1.4-0.1-2.7h11.9c0.1,1.6,0.1,3.5,0.1,4
			c0,13.5-5.6,18.2-21.8,18.2c-11.3,0-17.1-2.1-19.8-7.3c-1.2-2.1-1.5-4.1-1.5-9.3V90.3h-9.4v-8.9h9.4V68H379v13.4h26.6V90.3z"/>
		<path d="M432.6,81.4l-1,7.4l0.3,0.1c4.5-6.3,9.7-8.7,19.3-8.7c13.2,0,18.7,5.2,18.7,17.8c0,0.5,0,2.4-0.1,4.1h-12.9
			c0.1-1.7,0.1-2.7,0.1-3.8c0-6.7-2.5-8.9-10-8.9c-6.4,0-10.8,2-12.9,5.6c-1,2.1-1.5,4.6-1.5,9.8v34.4h-13.7V81.4H432.6z"/>
		<path d="M535.6,85.1c5.4,4,7.4,10.5,7.4,24c0,25.8-5.2,30.8-32,30.8c-15.5,0-22.9-2-26.9-7.2c-3.6-4.5-4.8-10.3-4.8-23.4
			c0-23.5,5.6-28.7,31.5-28.7C525.1,80.7,531,81.8,535.6,85.1z M493.5,109.8c0,19,1.8,21.1,17.8,21.1c15.5,0,17.5-2.5,17.5-20.9
			c0-17.8-1.9-20.1-17.7-20.1C495.6,89.8,493.5,92.2,493.5,109.8z"/>
		<path d="M571.4,139.3h-13.7V56.6h13.7V139.3z"/>
		<path d="M602.2,139.3h-13.7V56.6h13.7V139.3z"/>
		<path d="M679.5,121.2v2.2c0,12.1-8,16.6-29.9,16.6c-26.6,0-32.5-5.6-32.5-30c0-23.5,6.4-29.4,32.3-29.4c17.4,0,24.7,3.1,28.2,11.8
			c1.6,4.2,1.9,7.4,1.9,19.9H631v1.7c0,14,3.1,17,17.8,17c14.6,0,16.8-1.4,16.8-9.9H679.5z M665.8,104.7c-0.1-7.4-0.3-8.2-1.3-10.4
			c-1.6-3.7-5.5-5-15.5-5c-15.2,0-17.7,2.2-17.8,15.4H665.8z"/>
		<path d="M707.8,81.4l-1,7.4l0.3,0.1c4.5-6.3,9.7-8.7,19.3-8.7c13.2,0,18.7,5.2,18.7,17.8c0,0.5,0,2.4-0.1,4.1h-12.9
			c0.1-1.7,0.1-2.7,0.1-3.8c0-6.7-2.5-8.9-10-8.9c-6.4,0-10.8,2-12.9,5.6c-1,2.1-1.5,4.6-1.5,9.8v34.4h-13.7V81.4H707.8z"/>
	</g>
	<path class="st0" d="M846.1,27.5c-9,6.9-18.6,4.8-23.8-1.2l-24.7,13c1,2.8,1.6,5.8,1.6,9c0,3.7-0.8,7.2-2.1,10.4l19.3,11.6
		c4-3.3,10.2-4.2,16.4,0.6c8.5,11.4-2.3,24.2-13.8,19.4c-7.3-5.9-7.4-10.1-6.5-13.9L793.2,65c-8.5,10.5-24.8,14.4-40.1,2.8
		c-16.7-21.9-1.4-46,19.5-46c8.9,0,16.7,4.4,21.5,11.1l24.7-13c-1.3-5-0.5-10.9,5.9-17.2C841.3-7.3,858.6,11.2,846.1,27.5z"/>
</g>
</svg>
